<svg xmlns="http://www.w3.org/2000/svg" viewBox="0 0 980 470" font-size="13">
<rect width="980" height="470" fill="#fcfcfb"/>
<text x="40.0" y="30.0" font-family="DejaVu Sans, sans-serif" font-size="17" fill="#0b0b0b" text-anchor="start" font-weight="bold">A census pause grows with the live cells, and only with them</text>
<text x="40.0" y="50.0" font-family="DejaVu Sans, sans-serif" font-size="13" fill="#52514e" text-anchor="start">2 M events, a census every 100 k; K live cells kept across the census</text>
<line x1="40" y1="70" x2="62" y2="70" stroke="#2a78d6" stroke-width="3" stroke-linecap="round"/>
<text x="68.0" y="74.0" font-family="DejaVu Sans, sans-serif" font-size="13" fill="#0b0b0b" text-anchor="start">scoped: census of the region only</text>
<line x1="311.6" y1="70" x2="333.6" y2="70" stroke="#eda100" stroke-width="3" stroke-linecap="round"/>
<text x="339.6" y="74.0" font-family="DejaVu Sans, sans-serif" font-size="13" fill="#0b0b0b" text-anchor="start">coop: census, cooperative sweep</text>
<line x1="568.8000000000001" y1="70" x2="590.8000000000001" y2="70" stroke="#eb6834" stroke-width="3" stroke-linecap="round"/>
<text x="596.8" y="74.0" font-family="DejaVu Sans, sans-serif" font-size="13" fill="#0b0b0b" text-anchor="start">full: stock collection of the whole heap</text>
<text x="90.0" y="96.0" font-family="DejaVu Sans, sans-serif" font-size="15" fill="#0b0b0b" text-anchor="start" font-weight="bold">median pause</text>
<line x1="90.0" y1="110" x2="90.0" y2="390" stroke="#e8e7e4" stroke-width="1"/>
<text x="90.0" y="408.0" font-family="DejaVu Sans, sans-serif" font-size="12" fill="#52514e" text-anchor="middle">100</text>
<line x1="210.0" y1="110" x2="210.0" y2="390" stroke="#e8e7e4" stroke-width="1"/>
<text x="210.0" y="408.0" font-family="DejaVu Sans, sans-serif" font-size="12" fill="#52514e" text-anchor="middle">1 k</text>
<line x1="330.0" y1="110" x2="330.0" y2="390" stroke="#e8e7e4" stroke-width="1"/>
<text x="330.0" y="408.0" font-family="DejaVu Sans, sans-serif" font-size="12" fill="#52514e" text-anchor="middle">10 k</text>
<line x1="450.0" y1="110" x2="450.0" y2="390" stroke="#e8e7e4" stroke-width="1"/>
<text x="450.0" y="408.0" font-family="DejaVu Sans, sans-serif" font-size="12" fill="#52514e" text-anchor="middle">100 k</text>
<line x1="90" y1="390.0" x2="450" y2="390.0" stroke="#e8e7e4" stroke-width="1"/>
<text x="82.0" y="394.0" font-family="DejaVu Sans, sans-serif" font-size="12" fill="#52514e" text-anchor="end">1.0 µs</text>
<line x1="90" y1="320.0" x2="450" y2="320.0" stroke="#e8e7e4" stroke-width="1"/>
<text x="82.0" y="324.0" font-family="DejaVu Sans, sans-serif" font-size="12" fill="#52514e" text-anchor="end">10 µs</text>
<line x1="90" y1="250.0" x2="450" y2="250.0" stroke="#e8e7e4" stroke-width="1"/>
<text x="82.0" y="254.0" font-family="DejaVu Sans, sans-serif" font-size="12" fill="#52514e" text-anchor="end">100 µs</text>
<line x1="90" y1="180.0" x2="450" y2="180.0" stroke="#e8e7e4" stroke-width="1"/>
<text x="82.0" y="184.0" font-family="DejaVu Sans, sans-serif" font-size="12" fill="#52514e" text-anchor="end">1.0 ms</text>
<line x1="90" y1="110.0" x2="450" y2="110.0" stroke="#e8e7e4" stroke-width="1"/>
<text x="82.0" y="114.0" font-family="DejaVu Sans, sans-serif" font-size="12" fill="#52514e" text-anchor="end">10 ms</text>
<path d="M147.3,330.4 L210.0,327.0 L267.3,311.1 L330.0,282.7 L387.3,252.3 L450.0,217.0" fill="none" stroke="#2a78d6" stroke-width="2" stroke-linejoin="round" stroke-linecap="round"/>
<circle cx="450.0" cy="217.0" r="5" fill="#2a78d6" stroke="#fcfcfb" stroke-width="2"/>
<path d="M147.3,363.7 L210.0,341.0 L267.3,317.5 L330.0,287.6 L387.3,255.8 L450.0,219.4" fill="none" stroke="#eda100" stroke-width="2" stroke-linejoin="round" stroke-linecap="round"/>
<circle cx="450.0" cy="219.4" r="2.5" fill="#eda100" stroke="#fcfcfb" stroke-width="2"/>
<path d="M147.3,162.2 L210.0,159.4 L267.3,154.4 L330.0,152.6 L387.3,145.5 L450.0,128.7" fill="none" stroke="#eb6834" stroke-width="2" stroke-linejoin="round" stroke-linecap="round"/>
<circle cx="450.0" cy="128.7" r="5" fill="#eb6834" stroke="#fcfcfb" stroke-width="2"/>
<text x="270.0" y="428.0" font-family="DejaVu Sans, sans-serif" font-size="13" fill="#52514e" text-anchor="middle">K, live cells</text>
<text x="560.0" y="96.0" font-family="DejaVu Sans, sans-serif" font-size="15" fill="#0b0b0b" text-anchor="start" font-weight="bold">longest pause</text>
<line x1="560.0" y1="110" x2="560.0" y2="390" stroke="#e8e7e4" stroke-width="1"/>
<text x="560.0" y="408.0" font-family="DejaVu Sans, sans-serif" font-size="12" fill="#52514e" text-anchor="middle">100</text>
<line x1="680.0" y1="110" x2="680.0" y2="390" stroke="#e8e7e4" stroke-width="1"/>
<text x="680.0" y="408.0" font-family="DejaVu Sans, sans-serif" font-size="12" fill="#52514e" text-anchor="middle">1 k</text>
<line x1="800.0" y1="110" x2="800.0" y2="390" stroke="#e8e7e4" stroke-width="1"/>
<text x="800.0" y="408.0" font-family="DejaVu Sans, sans-serif" font-size="12" fill="#52514e" text-anchor="middle">10 k</text>
<line x1="920.0" y1="110" x2="920.0" y2="390" stroke="#e8e7e4" stroke-width="1"/>
<text x="920.0" y="408.0" font-family="DejaVu Sans, sans-serif" font-size="12" fill="#52514e" text-anchor="middle">100 k</text>
<line x1="560" y1="390.0" x2="920" y2="390.0" stroke="#e8e7e4" stroke-width="1"/>
<text x="552.0" y="394.0" font-family="DejaVu Sans, sans-serif" font-size="12" fill="#52514e" text-anchor="end">1.0 µs</text>
<line x1="560" y1="320.0" x2="920" y2="320.0" stroke="#e8e7e4" stroke-width="1"/>
<text x="552.0" y="324.0" font-family="DejaVu Sans, sans-serif" font-size="12" fill="#52514e" text-anchor="end">10 µs</text>
<line x1="560" y1="250.0" x2="920" y2="250.0" stroke="#e8e7e4" stroke-width="1"/>
<text x="552.0" y="254.0" font-family="DejaVu Sans, sans-serif" font-size="12" fill="#52514e" text-anchor="end">100 µs</text>
<line x1="560" y1="180.0" x2="920" y2="180.0" stroke="#e8e7e4" stroke-width="1"/>
<text x="552.0" y="184.0" font-family="DejaVu Sans, sans-serif" font-size="12" fill="#52514e" text-anchor="end">1.0 ms</text>
<line x1="560" y1="110.0" x2="920" y2="110.0" stroke="#e8e7e4" stroke-width="1"/>
<text x="552.0" y="114.0" font-family="DejaVu Sans, sans-serif" font-size="12" fill="#52514e" text-anchor="end">10 ms</text>
<path d="M617.3,272.1 L680.0,269.7 L737.3,266.6 L800.0,259.0 L857.3,236.9 L920.0,203.3" fill="none" stroke="#2a78d6" stroke-width="2" stroke-linejoin="round" stroke-linecap="round"/>
<circle cx="920.0" cy="203.3" r="5" fill="#2a78d6" stroke="#fcfcfb" stroke-width="2"/>
<path d="M617.3,302.6 L680.0,297.6 L737.3,289.0 L800.0,271.5 L857.3,243.3 L920.0,213.8" fill="none" stroke="#eda100" stroke-width="2" stroke-linejoin="round" stroke-linecap="round"/>
<circle cx="920.0" cy="213.8" r="5" fill="#eda100" stroke="#fcfcfb" stroke-width="2"/>
<path d="M617.3,125.5 L680.0,125.5 L737.3,123.9 L800.0,121.6 L857.3,119.4 L920.0,110.2" fill="none" stroke="#eb6834" stroke-width="2" stroke-linejoin="round" stroke-linecap="round"/>
<circle cx="920.0" cy="110.2" r="5" fill="#eb6834" stroke="#fcfcfb" stroke-width="2"/>
<text x="740.0" y="428.0" font-family="DejaVu Sans, sans-serif" font-size="13" fill="#52514e" text-anchor="middle">K, live cells</text>
<text x="32.0" y="250.0" font-family="DejaVu Sans, sans-serif" font-size="13" fill="#52514e" text-anchor="middle" transform="rotate(-90 32 250.0)">pause</text>
<text x="40.0" y="458.0" font-family="DejaVu Sans, sans-serif" font-size="11" fill="#52514e" text-anchor="start">julia 5a9121d575 (1.14.0-DEV.3341) · AMD RYZEN AI MAX+ 395 w/ Radeon 8060S · core 28 · time-shared · 2026-09-23</text>
</svg>